<?xml version="1.0" encoding="utf-8"?>
<!-- Generator: Adobe Illustrator 17.0.0, SVG Export Plug-In . SVG Version: 6.00 Build 0)  -->
<!DOCTYPE svg PUBLIC "-//W3C//DTD SVG 1.1//EN" "http://www.w3.org/Graphics/SVG/1.1/DTD/svg11.dtd">
<svg version="1.1" id="Layer_1" xmlns="http://www.w3.org/2000/svg" xmlns:xlink="http://www.w3.org/1999/xlink" x="0px" y="0px"
	 width="100px" height="100px" viewBox="0 0 100 100" enable-background="new 0 0 100 100" xml:space="preserve">
<g id="Layer_5">
	<circle fill="#E42473" cx="50" cy="50" r="49.067"/>
</g>
<g id="Layer_3_copy_3">
	<path fill="#FFFFFF" d="M50.592,38.877c0,0-17.18-15.686-29.415-3.869c0,0-6.427,4.933-4.724,18.952c0,0,2.16,15.805,15.123,26.447
		c0,0,9.87,7.371,18.826,1.095L50.592,38.877z"/>
</g>
<g id="Layer_3_copy_2">
	<g>
		<path fill="#FFFFFF" d="M49.783,38.877c0,0,17.18-15.686,29.415-3.869c0,0,6.427,4.933,4.724,18.952
			c0,0-2.16,15.805-15.123,26.447c0,0-9.87,7.371-18.826,1.095L49.783,38.877z"/>
	</g>
</g>
<g id="Layer_6_copy">
	<path fill="#FFFFFF" d="M34.814,18.488l5.43-0.905c0,0,8.483,7.154,11.113,20.05l-1.273,0.849
		C50.084,38.481,42.618,20.665,34.814,18.488z"/>
</g>
<g id="Layer_7_copy">
	<path fill="#FFFFFF" d="M49.75,34.263c0,0-6.911-25.37,22.152-20.732L49.75,34.263z"/>
</g>
<g id="Layer_8_copy">
	<path fill="#FFFFFF" d="M71.902,13.531L49.75,34.263C49.75,34.263,78.339,31.896,71.902,13.531z"/>
</g>
</svg>
